<?xml version="1.0" encoding="UTF-8" standalone="no"?>
<svg width="72" height="72" viewBox="0 0 19.05 19.050001" version="1.1" id="svg5" xml:space="preserve"
    xmlns="http://www.w3.org/2000/svg">
    <defs id="defs2" />
    <g id="layer1" transform="translate(-10.684354,-55.927886)">
        <path style="fill:#000000;stroke-width:0.0267205"
            d="m 17.0522,73.014792 c -0.07151,-0.0347 -0.144829,-0.159083 -0.144829,-0.245685 0,-0.324761 0.435423,-0.427186 0.574057,-0.135035 0.125422,0.264307 -0.155544,0.51352 -0.429228,0.38072 z m 5.973386,-0.132226 c -0.301908,-0.175146 -0.303891,-0.597969 -0.0036,-0.766744 0.259058,-0.145599 0.566068,-0.0073 0.646448,0.291216 0.09347,0.347107 -0.327478,0.658487 -0.642852,0.475528 z m -2.819455,-0.463907 c -0.155735,-0.155734 0.01756,-0.406655 0.210054,-0.304135 0.141722,0.07548 0.167837,0.225395 0.05476,0.314341 -0.0934,0.07347 -0.184662,0.06995 -0.264815,-0.01021 z M 18.577398,71.803211 C 17.755,71.580208 16.907371,70.587837 16.907371,69.848007 c 0,-0.07335 -0.0062,-0.07265 0.204327,-0.023 0.33094,0.07804 0.541425,0.101603 1.051533,0.117708 l 0.521049,0.01645 0.01879,0.300533 c 0.02345,0.37519 0.08689,0.753878 0.175705,1.04885 0.15075,0.50069 0.0898,0.600733 -0.301375,0.494664 z m 7.254614,-0.04372 c -0.258052,-0.102899 -0.304718,-0.427628 -0.0829,-0.576894 0.330848,-0.22264 0.707473,0.20817 0.430053,0.491923 -0.102847,0.105194 -0.222801,0.134555 -0.34715,0.08497 z m -11.282097,-0.08679 c -0.502583,-0.222903 -0.358918,-0.978724 0.186035,-0.978724 0.485071,0 0.701766,0.549747 0.347919,0.882659 -0.13233,0.124502 -0.372436,0.167699 -0.533954,0.09607 z m 6.672807,-0.187853 c -0.696552,-0.159637 -1.463276,-0.712134 -1.900815,-1.369714 -0.173102,-0.260155 -0.173832,-0.258161 0.110545,-0.301955 1.611943,-0.248247 2.727069,-0.995058 4.490042,-3.007027 0.996354,-1.137077 1.209166,-1.270893 1.742502,-1.095695 l 0.06012,0.01975 v -0.80473 c 0,-0.442602 -0.0049,-0.80473 -0.01096,-0.80473 -0.006,0 -0.08585,0.03542 -0.177371,0.0787 -0.391136,0.184977 -0.595618,0.146802 -1.150053,-0.214708 -2.046529,-1.334403 -4.51035,-1.351112 -6.490705,-0.04402 -0.496028,0.327394 -0.591033,0.531419 -0.365551,0.785024 1.378556,1.550487 0.256011,4.608031 -1.702007,4.635859 -0.573251,0.0081 -2.201113,-1.140471 -2.790382,-1.968893 -0.214254,-0.301207 -0.21087,-0.305947 0.218534,-0.306152 0.758866,-3.97e-4 0.99286,-0.117763 0.482584,-0.242123 -0.888126,-0.216447 -1.033843,-0.375926 -0.785034,-0.859175 0.973522,-1.890829 2.328457,-3.277674 3.894746,-3.986476 0.200025,-0.09052 0.207016,-0.09691 0.266412,-0.24355 0.55391,-1.367534 1.121314,-1.90898 2.557607,-2.4406 0.915438,-0.338834 2.32628,-0.626082 2.452942,-0.499421 0.06875,0.06876 0.06277,0.08482 -0.185853,0.498489 -0.836364,1.391603 -0.881523,2.066443 -0.156174,2.333771 0.990869,0.365183 1.84886,0.894711 2.725314,1.681984 0.699801,0.628596 0.959952,0.606825 1.400624,-0.117209 0.714822,-1.174468 1.666505,-1.977669 2.153023,-1.817104 0.201512,0.06651 0.211518,0.149385 0.06614,0.547883 -0.507453,1.39103 -0.804413,2.853126 -0.678629,3.341263 0.256359,0.994859 0.484573,1.724891 0.746691,2.388571 0.452061,1.144618 -0.785872,0.68947 -1.791448,-0.658658 -0.129202,-0.173215 -0.307699,-0.412679 -0.396659,-0.532142 -0.203403,-0.273145 -0.284012,-0.330564 -0.464071,-0.330564 -0.291623,0 -0.400384,0.10065 -0.996153,0.921855 -1.265918,1.744941 -2.392906,2.81788 -2.97186,2.82933 -0.223087,0.0044 -0.134705,0.271898 0.36457,1.103356 0.202,0.336397 0.212637,0.389306 0.09092,0.452249 -0.116825,0.06041 -0.593627,0.07605 -0.809594,0.02656 z M 15.571348,67.11267 c 0.668844,-0.104298 1.156021,-0.739008 1.046121,-1.362922 -0.20216,-1.147682 -1.677611,-1.453021 -2.30404,-0.476814 -0.558959,0.871062 0.214612,2.002427 1.257919,1.839736 z M 15.13046,66.421488 c -0.404412,-0.187237 -0.457017,-0.771392 -0.08994,-0.998765 0.394449,-0.244329 0.877021,0.017 0.877021,0.474933 0,0.413276 -0.42087,0.693381 -0.787081,0.523832 z m 0.494329,-0.563912 c 0.11873,-0.11873 0.02472,-0.347366 -0.142836,-0.347366 -0.113752,0 -0.177809,0.06818 -0.177809,0.189245 0,0.176735 0.20228,0.276486 0.320645,0.158121 z m 7.398419,4.839545 c -0.183557,-0.183558 -0.120356,-0.457111 0.12426,-0.537841 0.357365,-0.117941 0.569202,0.391538 0.244993,0.58922 -0.138644,0.08454 -0.248644,0.06923 -0.369253,-0.05138 z M 12.996469,70.089124 c -0.08724,-0.08725 -0.09499,-0.225651 -0.017,-0.303642 0.0781,-0.0781 0.265769,-0.0735 0.342708,0.0084 0.195313,0.207902 -0.123789,0.497155 -0.325704,0.29524 z m 12.695192,-0.101282 c -0.359746,-0.128381 -0.543394,-0.54406 -0.393897,-0.891575 0.275241,-0.639813 1.256717,-0.430678 1.255425,0.26751 -8.2e-4,0.44444 -0.451029,0.770558 -0.861528,0.624065 z m -7.089794,-1.683007 c -0.269264,-0.0843 -0.30337,-0.129035 -0.221183,-0.290136 0.270011,-0.529262 0.345277,-1.417809 0.167538,-1.977818 -0.09256,-0.291621 1.481633,0.114119 2.039889,0.525772 0.544254,0.401328 -1.247956,1.97332 -1.986244,1.742182 z m -5.796085,-4.635553 c -0.512459,-0.23726 -0.407234,-0.955298 0.151248,-1.032109 0.177784,-0.02445 0.390045,0.07909 0.513312,0.250383 0.308268,0.428384 -0.182033,1.005129 -0.66456,0.781726 z m 10.259325,-1.857357 c -0.221362,-0.09642 -0.298957,-0.376756 -0.160628,-0.580325 0.223382,-0.328737 0.736443,-0.177487 0.736443,0.217103 0,0.291121 -0.302812,0.482134 -0.575815,0.363222 z M 12.67218,61.39105 c -0.210254,-0.12586 -0.121288,-0.450035 0.123506,-0.450035 0.176204,0 0.281009,0.255173 0.163739,0.398658 -0.05571,0.06817 -0.212385,0.09619 -0.287245,0.05138 z m 2.017221,-0.207797 c -0.761288,-0.231573 -0.677514,-1.326982 0.109676,-1.434092 0.395511,-0.05382 0.825712,0.333804 0.825712,0.743984 0,0.462137 -0.491862,0.825022 -0.935388,0.690108 z m 11.362811,-0.144047 c -0.161772,-0.08984 -0.199437,-0.313848 -0.07467,-0.444078 0.185378,-0.193492 0.495746,-0.07192 0.495746,0.194181 0,0.207795 -0.240204,0.350348 -0.421076,0.249897 z m -1.890241,-0.777202 c -0.271966,-0.120875 -0.357521,-0.48363 -0.165615,-0.7022 0.251649,-0.28661 0.686278,-0.189774 0.796291,0.177418 0.104908,0.35015 -0.287998,0.677086 -0.630676,0.524782 z M 16.991519,59.13365 c -0.379473,-0.193389 -0.271259,-0.790835 0.150584,-0.831369 0.450175,-0.04326 0.664816,0.535021 0.296049,0.797606 -0.112312,0.07997 -0.324485,0.09601 -0.446633,0.03376 z m 5.794349,-0.135787 c -0.233353,-0.08768 -0.364972,-0.407113 -0.255209,-0.619372 0.185791,-0.35928 0.688372,-0.336334 0.831315,0.03796 0.134058,0.351027 -0.224966,0.713361 -0.576106,0.581417 z"
            id="path1682" />
    </g>
</svg>
